<?xml version="1.0" encoding="UTF-8" standalone="no"?>
<!-- Created with Inkscape (http://www.inkscape.org/) -->

<svg
   width="217.73248mm"
   height="175.52271mm"
   viewBox="0 0 217.73248 175.52271"
   version="1.1"
   id="svg1"
   xml:space="preserve"
   inkscape:version="1.3.2 (091e20ef0f, 2023-11-25, custom)"
   sodipodi:docname="seashell.svg"
   inkscape:export-filename="seashell2.png"
   inkscape:export-xdpi="34.997074"
   inkscape:export-ydpi="34.997074"
   xmlns:inkscape="http://www.inkscape.org/namespaces/inkscape"
   xmlns:sodipodi="http://sodipodi.sourceforge.net/DTD/sodipodi-0.dtd"
   xmlns="http://www.w3.org/2000/svg"
   xmlns:svg="http://www.w3.org/2000/svg"><sodipodi:namedview
     id="namedview1"
     pagecolor="#ffffff"
     bordercolor="#000000"
     borderopacity="0.25"
     inkscape:showpageshadow="2"
     inkscape:pageopacity="0.0"
     inkscape:pagecheckerboard="0"
     inkscape:deskcolor="#d1d1d1"
     inkscape:document-units="mm"
     inkscape:zoom="0.39533211"
     inkscape:cx="254.21664"
     inkscape:cy="308.60129"
     inkscape:window-width="1186"
     inkscape:window-height="706"
     inkscape:window-x="0"
     inkscape:window-y="0"
     inkscape:window-maximized="1"
     inkscape:current-layer="layer1"
     showguides="false" /><defs
     id="defs1"><rect
       x="156.25292"
       y="-586.58679"
       width="518.7984"
       height="230.71892"
       id="rect1" /><inkscape:path-effect
       effect="fillet_chamfer"
       id="path-effect9"
       is_visible="true"
       lpeversion="1"
       nodesatellites_param="F,0,0,1,0,0.70525833,0,1 @ F,0,0,1,0,6.8791667,0,1 @ F,0,0,1,0,6.8791667,0,1 @ F,0,0,1,0,6.8791667,0,1"
       radius="26"
       unit="px"
       method="auto"
       mode="F"
       chamfer_steps="1"
       flexible="false"
       use_knot_distance="true"
       apply_no_radius="true"
       apply_with_radius="true"
       only_selected="false"
       hide_knots="false" /><inkscape:path-effect
       effect="fillet_chamfer"
       id="path-effect7"
       is_visible="true"
       lpeversion="1"
       nodesatellites_param="F,0,0,1,0,0.70525833,0,1 @ F,0,0,1,0,6.8791667,0,1 @ F,0,0,1,0,6.8791667,0,1 @ F,0,0,1,0,6.8791667,0,1"
       radius="26"
       unit="px"
       method="auto"
       mode="F"
       chamfer_steps="1"
       flexible="false"
       use_knot_distance="true"
       apply_no_radius="true"
       apply_with_radius="true"
       only_selected="false"
       hide_knots="false" /><inkscape:path-effect
       effect="fillet_chamfer"
       id="path-effect5"
       is_visible="true"
       lpeversion="1"
       nodesatellites_param="F,0,0,1,0,0.70525833,0,1 @ F,0,0,1,0,6.8791667,0,1 @ F,0,0,1,0,6.8791667,0,1 @ F,0,0,1,0,6.8791667,0,1"
       radius="26"
       unit="px"
       method="auto"
       mode="F"
       chamfer_steps="1"
       flexible="false"
       use_knot_distance="true"
       apply_no_radius="true"
       apply_with_radius="true"
       only_selected="false"
       hide_knots="false" /><inkscape:path-effect
       effect="fillet_chamfer"
       id="path-effect1"
       is_visible="true"
       lpeversion="1"
       nodesatellites_param="F,0,0,1,0,0.70525833,0,1 @ F,0,0,1,0,6.8791667,0,1 @ F,0,0,1,0,6.8791667,0,1 @ F,0,0,1,0,6.8791667,0,1"
       radius="26"
       unit="px"
       method="auto"
       mode="F"
       chamfer_steps="1"
       flexible="false"
       use_knot_distance="true"
       apply_no_radius="true"
       apply_with_radius="true"
       only_selected="false"
       hide_knots="false" /><inkscape:path-effect
       effect="fillet_chamfer"
       id="path-effect1-5"
       is_visible="true"
       lpeversion="1"
       nodesatellites_param="F,0,0,1,0,0.70525833,0,1 @ F,0,0,1,0,6.8791667,0,1 @ F,0,0,1,0,6.8791667,0,1 @ F,0,0,1,0,6.8791667,0,1"
       radius="26"
       unit="px"
       method="auto"
       mode="F"
       chamfer_steps="1"
       flexible="false"
       use_knot_distance="true"
       apply_no_radius="true"
       apply_with_radius="true"
       only_selected="false"
       hide_knots="false" /><inkscape:path-effect
       effect="fillet_chamfer"
       id="path-effect1-5-7"
       is_visible="true"
       lpeversion="1"
       nodesatellites_param="F,0,0,1,0,0.70525833,0,1 @ F,0,0,1,0,6.8791667,0,1 @ F,0,0,1,0,6.8791667,0,1 @ F,0,0,1,0,6.8791667,0,1"
       radius="26"
       unit="px"
       method="auto"
       mode="F"
       chamfer_steps="1"
       flexible="false"
       use_knot_distance="true"
       apply_no_radius="true"
       apply_with_radius="true"
       only_selected="false"
       hide_knots="false" /><inkscape:path-effect
       effect="fillet_chamfer"
       id="path-effect1-5-7-6"
       is_visible="true"
       lpeversion="1"
       nodesatellites_param="F,0,0,1,0,0.70525833,0,1 @ F,0,0,1,0,6.8791667,0,1 @ F,0,0,1,0,6.8791667,0,1 @ F,0,0,1,0,6.8791667,0,1"
       radius="26"
       unit="px"
       method="auto"
       mode="F"
       chamfer_steps="1"
       flexible="false"
       use_knot_distance="true"
       apply_no_radius="true"
       apply_with_radius="true"
       only_selected="false"
       hide_knots="false" /><inkscape:path-effect
       effect="fillet_chamfer"
       id="path-effect1-5-7-9"
       is_visible="true"
       lpeversion="1"
       nodesatellites_param="F,0,0,1,0,0.70525833,0,1 @ F,0,0,1,0,6.8791667,0,1 @ F,0,0,1,0,6.8791667,0,1 @ F,0,0,1,0,6.8791667,0,1"
       radius="26"
       unit="px"
       method="auto"
       mode="F"
       chamfer_steps="1"
       flexible="false"
       use_knot_distance="true"
       apply_no_radius="true"
       apply_with_radius="true"
       only_selected="false"
       hide_knots="false" /></defs><g
     inkscape:label="Layer 1"
     inkscape:groupmode="layer"
     id="layer1"
     transform="translate(3.8662446,-60.738641)"><path
       style="fill:#1a78ff;fill-opacity:1;stroke:none;stroke-width:2.54857;stroke-linecap:round"
       id="path224475"
       sodipodi:type="arc"
       sodipodi:cx="-193.54536"
       sodipodi:cy="-122.65689"
       sodipodi:rx="130.53343"
       sodipodi:ry="148.55132"
       sodipodi:start="0"
       sodipodi:end="2.0943951"
       sodipodi:arc-type="slice"
       d="m -63.011932,-122.65689 a 130.53343,148.55132 0 0 1 -65.266718,128.6492119 130.53343,148.55132 0 0 1 -130.53343,2e-7 l 65.26672,-128.6492121 z"
       transform="matrix(-0.79958147,-0.60055764,0.40564612,-0.91403021,0,0)" /><g
       id="use9"
       transform="matrix(-1,0,0,1,191.9013,102.25719)"><path
         id="path224469"
         style="fill:#005bdd;fill-opacity:1"
         d="m 96.311034,-41.197039 c 3.935916,0.26961 5.140226,0.31642 11.724866,1.61385 7.8667,1.55004 10.95654,2.62194 13.49116,4.6793 1.46501,1.18915 1.92157,2.29198 1.92857,4.65657 0.006,2.32701 -0.43788,4.26491 -2.27015,9.90688 -2.54293,7.83024 -32.912339,124.273829 -31.620798,125.072489 1.152527,0.71231 10.348262,-27.479179 29.087618,-89.175959 2.20997,-7.2760404 5.028,-16.50339036 6.26267,-20.5052204 1.23466,-4.00181 2.70627,-9.0024396 3.27008,-11.1124996 2.02731,-7.58694 3.1902,-10.35519 5.05861,-12.04319 0.94492,-0.85369 1.14634,-0.92139 2.74712,-0.92139 2.10603,0 4.17823,0.65828 7.39903,2.34921 2.76575,1.45203 9.81897,5.75802 13.15424,8.03103 2.31613,1.57847 5.16674,4.34966 5.86631,5.7025 1.11903,2.16398 0.69564,4.9243696 -1.40819,9.1849696 -21.97826,36.3180704 -44.6351,72.5472504 -64.744356,109.8542894 0.80924,0.80924 45.974986,-67.858849 64.849266,-97.7552894 4.12568,-6.93446 6.71658,-9.15899996 10.12393,-8.69196996 3.0573,0.41904 7.1249,3.67800996 10.86342,8.70436996 2.98671,4.0155904 5.7121,10.7125904 5.7335,14.0880404 0.0101,1.59365 -0.11639,2.11898 -0.89246,3.69539 -0.96239,1.95489 -2.34003,3.43956 -9.94358,10.71924 -17.86656,17.10557 -62.22544,61.06184 -69.28776,68.658859 -4.08781,4.3973 -4.84696,5.32863 -4.57078,5.60482 0.87505,0.87505 36.75847,-31.706649 68.69917,-61.042269 8.88251,-8.15805 11.5354,-10.31447 14.2875,-11.61479 4.05558,-1.91619 7.25733,-0.42156 8.32766,3.88762 0.94029,3.78558 1.598,12.49906 1.20302,15.93649 -0.51992,4.52477 -1.90956,7.7653 -4.27054,9.9596 -0.82752,0.7691 -4.80665,3.30892 -34.62889,22.10149 C 128.62,108.0744 117.48113,115.08666 95.768434,128.73782 c -4.193465,2.63651 -6.323301,3.87745 -8.073922,4.64829 l 5.17e-4,0.61805 c -0.262471,-0.0881 -0.53185,-0.20809 -0.79375,-0.30902 -0.261901,0.10093 -0.53128,0.22088 -0.79375,0.30902 l 5.17e-4,-0.61805 C 84.357424,132.61527 82.227592,131.37433 78.03412,128.73782 56.321419,115.08666 45.182551,108.0744 17.051279,90.347391 c -29.822241,-18.79257 -33.801376,-21.33239 -34.628894,-22.10149 -2.360978,-2.1943 -3.750621,-5.43483 -4.270541,-9.9596 -0.394979,-3.43743 0.263255,-12.15091 1.203544,-15.93649 1.070329,-4.30918 4.271564,-5.80381 8.32714,-3.88762 2.7520966,1.30032 5.4049886,3.45674 14.2875006,11.61479 31.9406984,29.33562 67.8246334,61.917319 68.6996824,61.042269 0.27618,-0.27619 -0.483481,-1.20752 -4.571297,-5.60482 -7.062313,-7.597019 -51.421198,-51.553289 -69.2877614,-68.658859 -7.6035426,-7.27968 -8.9806736,-8.76435 -9.9430626,-10.71924 -0.776069,-1.57641 -0.903098,-2.10174 -0.892968,-3.69539 0.0214,-3.37545 2.7473,-10.07245 5.7340166,-14.0880404 3.738516,-5.02636 7.80559598,-8.28532996 10.862904,-8.70436996 3.407346,-0.46703 5.998244,1.75750996 10.1239294,8.69196996 C 31.569753,38.236941 76.735504,106.90503 77.544744,106.09579 57.435482,68.788751 34.778643,32.559571 12.800375,-3.7584994 c -2.103827,-4.2606 -2.527221,-7.0209896 -1.408182,-9.1849696 0.699569,-1.35284 3.550687,-4.12403 5.866825,-5.7025 3.335267,-2.27301 10.387972,-6.579 13.153719,-8.03103 3.220797,-1.69093 5.293004,-2.34921 7.399032,-2.34921 1.600778,0 1.8022,0.0677 2.747119,0.92139 1.868408,1.688 3.031298,4.45625 5.058606,12.04319 0.563819,2.11006 2.035426,7.1106896 3.270084,11.1124996 1.234669,4.00183004 4.053216,13.22918 6.263184,20.5052204 18.739363,61.69678 27.934585,89.888269 29.087113,89.175959 1.291541,-0.79866 -29.077881,-117.242249 -31.620808,-125.072489 -1.832269,-5.64197 -2.276029,-7.57987 -2.269629,-9.90688 0.007,-2.36459 0.463039,-3.46742 1.928047,-4.65657 2.534628,-2.05736 5.624464,-3.12926 13.491166,-4.6793 6.584634,-1.29743 7.789297,-1.34424 11.725383,-1.61385 6.258336,-0.42867 12.560665,-0.42869 18.819,0 z"
         sodipodi:nodetypes="asscscsscssssscccsssssssssssssscccccssssssssssscsscccsssssssccscssaa" /></g><g
       id="g1"
       transform="matrix(0.91593948,0,0,0.91593948,8.8263539,12.482984)" /></g></svg>
